<svg width="159" height="141" viewBox="0 0 159 141" fill="none" xmlns="http://www.w3.org/2000/svg">
<path d="M149.29 62C149.29 96.2417 138.531 140.5 104.289 140.5C70.0475 140.5 -13.2107 109.5 1.78926 51.5C73.2884 51.5 106.547 0 140.789 0C175.03 0 149.29 27.7583 149.29 62Z" fill="#EAAB40"/>
<line x1="102.398" y1="90" x2="102.398" y2="87" stroke="white"/>
<path d="M73.7813 65.8352C74.1377 65.7164 75.1078 65.5878 76.6917 65.4492C78.2756 65.2908 79.711 65.2116 80.9979 65.2116C82.3046 65.2116 83.3143 65.271 84.0271 65.3898C84.0469 65.469 84.0568 65.568 84.0568 65.6868C84.0568 65.7857 83.9974 66.0332 83.8786 66.4292C83.7796 66.8252 83.7004 67.0825 83.641 67.2013C83.4826 67.3597 83.0371 67.4785 82.3046 67.5577L87.9769 83.9806L90.7981 84.2181C90.7981 84.7725 90.6298 85.3664 90.2933 86H83.4628L83.3737 84.9606C83.8291 84.723 84.4923 84.5151 85.3635 84.3369L83.8489 80.0902H75.5632L74.1674 83.9806L76.5729 84.2181C76.5729 84.7725 76.4046 85.3664 76.0681 86H69.2376L69.1485 84.9606C69.9206 84.6834 70.7423 84.4656 71.6134 84.3072L77.3748 67.4686C75.6127 67.2706 74.3753 67.033 73.6625 66.7559L73.7813 65.8352ZM81.5027 73.4676L79.9288 67.6468C79.81 67.627 79.6417 67.6171 79.4239 67.6171L77.8202 73.6754L76.0978 78.1895H83.3143L81.5027 73.4676ZM89.5882 93.1572C88.9546 93.1572 88.1825 93.0285 87.2718 92.7711C86.3412 92.5137 85.7077 92.2761 85.3711 92.0583C85.4701 90.2567 85.6582 88.9401 85.9354 88.1085C86.3709 88.0293 86.7471 87.9897 87.0639 87.9897C87.3609 87.9897 87.5588 87.9996 87.6578 88.0194L88.4003 91.2565C88.6973 91.3555 89.1328 91.405 89.707 91.405C91.4294 91.405 92.2907 89.9894 92.2907 87.1582C92.2907 85.4951 92.2511 83.0104 92.1719 79.7041C92.1125 76.3779 92.0729 74.1704 92.0531 73.0815C90.9642 73.0221 90.093 72.9033 89.4397 72.7251L89.5585 71.1808C90.5682 70.8839 92.0333 70.7354 93.9538 70.7354C94.5675 70.7354 95.0031 70.7552 95.2605 70.7948C95.2605 71.2699 95.2011 71.7946 95.0823 72.3687C94.9635 72.9429 94.8942 73.2201 94.8744 73.2003C94.815 76.1305 94.7457 80.595 94.6665 86.594C94.6269 88.851 94.2507 90.5042 93.538 91.5535C92.845 92.6226 91.5284 93.1572 89.5882 93.1572ZM94.9635 68.0923C94.4487 68.2111 93.9439 68.2705 93.4489 68.2705C92.9737 68.2705 92.4986 68.2408 92.0234 68.1814C91.9046 67.627 91.8452 67.0726 91.8452 66.5183C91.8452 65.9441 91.865 65.5185 91.9046 65.2413C92.3402 65.1423 92.7955 65.0928 93.2707 65.0928C93.7657 65.0928 94.2903 65.1126 94.8447 65.1522C94.9635 65.667 95.0229 66.1718 95.0229 66.6668C95.0229 67.1419 95.0031 67.6171 94.9635 68.0923ZM102.006 84.5745C103.67 84.5745 104.788 84.0597 105.362 83.0302C105.956 81.9809 106.253 80.496 106.253 78.5756C106.253 75.5266 105.58 73.616 104.234 72.8439C103.679 72.5271 102.897 72.3687 101.888 72.3687C100.898 72.3687 99.9573 72.5766 99.0664 72.9924C98.2745 74.5169 97.8785 76.2888 97.8785 78.3083C97.8785 80.2485 98.1359 81.7433 98.6506 82.7926C99.2446 83.9806 100.363 84.5745 102.006 84.5745ZM95.1463 78.5756C95.1463 76.0612 95.7205 74.1011 96.8688 72.6954C98.0171 71.2699 99.789 70.5572 102.185 70.5572C104.58 70.5572 106.313 71.2105 107.382 72.5172C108.451 73.8041 108.985 75.7147 108.985 78.2489C108.985 80.7831 108.411 82.7728 107.263 84.2181C106.134 85.6634 104.412 86.3861 102.096 86.3861C99.7791 86.3861 98.0369 85.7129 96.8688 84.3666C95.7205 83.0203 95.1463 81.09 95.1463 78.5756Z" fill="white"/>
<line x1="78.4824" y1="63.7226" x2="82.4824" y2="57.7226" stroke="white"/>
</svg>
