<svg width="18" height="17" viewBox="0 0 18 17" fill="none" xmlns="http://www.w3.org/2000/svg">
<path fill-rule="evenodd" clip-rule="evenodd" d="M12.8484 0.5C15.5807 0.5 17.641 2.72933 17.641 5.68564V11.3209C17.641 12.8339 17.1061 14.2009 16.1337 15.1708C15.2615 16.0397 14.1301 16.5 12.8615 16.5H4.77703C3.51097 16.5 2.38031 16.0405 1.50728 15.1708C0.534974 14.2009 0 12.8339 0 11.3209V5.68564C0 2.72933 2.06031 0.5 4.79262 0.5H12.8484ZM12.8484 1.73077H4.79262C2.72903 1.73077 1.23077 3.39395 1.23077 5.68564V11.3209C1.23077 12.5049 1.63774 13.5626 2.37621 14.2986C3.01292 14.9345 3.8441 15.2692 4.77949 15.2692H12.8484C12.8501 15.2676 12.8566 15.2692 12.8615 15.2692C13.7977 15.2692 14.6281 14.9345 15.2648 14.2986C16.0041 13.5626 16.4103 12.5049 16.4103 11.3209V5.68564C16.4103 3.39395 14.912 1.73077 12.8484 1.73077ZM14.1415 5.52876C14.3557 5.79214 14.3155 6.17943 14.0521 6.3944L10.4057 9.35809C9.94462 9.72404 9.39323 9.90702 8.84267 9.90702C8.29374 9.90702 7.74646 9.72568 7.28862 9.36302L3.60862 6.39604C3.34359 6.18271 3.30256 5.7946 3.51508 5.5304C3.72923 5.26702 4.11651 5.22517 4.38072 5.43768L8.05744 8.40137C8.51938 8.76732 9.17005 8.76732 9.63528 8.39809L13.2751 5.43932C13.5393 5.22353 13.9266 5.26455 14.1415 5.52876Z" fill="#383838"/>
</svg>
