<svg width="14" height="15" viewBox="0 0 14 15" fill="none" xmlns="http://www.w3.org/2000/svg">
<path d="M0.333984 7.50131C0.33436 9.08885 0.900965 10.6242 1.93196 11.8314C2.96295 13.0386 4.39073 13.8385 5.95865 14.0873V9.42797H4.26732V7.50131H5.96065V6.03464C5.92326 5.69137 5.96191 5.34407 6.07387 5.01742C6.18582 4.69076 6.36832 4.39277 6.60841 4.14459C6.8485 3.89642 7.1403 3.70415 7.46307 3.58145C7.78584 3.45875 8.13166 3.40863 8.47599 3.43464C8.97599 3.44264 9.47599 3.48731 9.96932 3.56797V5.20731H9.12665C8.98343 5.18855 8.83783 5.20221 8.7006 5.24729C8.56337 5.29237 8.43803 5.36771 8.33383 5.46775C8.22964 5.56779 8.14925 5.68996 8.09862 5.82524C8.04799 5.96051 8.02841 6.10544 8.04132 6.24931V7.50131H9.88865L9.59332 9.42864H8.04132V14.0873C9.29973 13.8884 10.4748 13.3331 11.4274 12.4872C12.38 11.6412 13.0703 10.5399 13.4165 9.31385C13.7627 8.08775 13.7503 6.78814 13.3808 5.56886C13.0113 4.34959 12.3001 3.26173 11.3316 2.43407C10.363 1.60641 9.17754 1.07362 7.91556 0.898775C6.65358 0.723932 5.36793 0.914358 4.21082 1.44751C3.05371 1.98066 2.07359 2.8342 1.38652 3.90709C0.699447 4.97998 0.334187 6.22727 0.333984 7.50131Z" fill="#383838"/>
</svg>
