<svg width="16" height="17" viewBox="0 0 16 17" fill="none" xmlns="http://www.w3.org/2000/svg">
<path d="M11.334 1.83325H4.66732C2.82637 1.83325 1.33398 3.32564 1.33398 5.16658V11.8333C1.33398 13.6742 2.82637 15.1666 4.66732 15.1666H11.334C13.1749 15.1666 14.6673 13.6742 14.6673 11.8333V5.16658C14.6673 3.32564 13.1749 1.83325 11.334 1.83325Z" stroke="#383838" stroke-width="2" stroke-linecap="round" stroke-linejoin="round"/>
<path d="M10.6678 8.07996C10.75 8.63479 10.6553 9.20143 10.3969 9.6993C10.1386 10.1972 9.72987 10.6009 9.22886 10.8531C8.72784 11.1052 8.16007 11.193 7.6063 11.1039C7.05252 11.0148 6.54095 10.7533 6.14433 10.3567C5.74772 9.96012 5.48626 9.44854 5.39715 8.89477C5.30804 8.34099 5.39582 7.77322 5.64799 7.27221C5.90017 6.77119 6.3039 6.36245 6.80176 6.10412C7.29963 5.84578 7.86628 5.75102 8.42111 5.83329C8.98706 5.91721 9.51101 6.18093 9.91557 6.58549C10.3201 6.99006 10.5839 7.51401 10.6678 8.07996Z" stroke="#383838" stroke-width="2" stroke-linecap="round" stroke-linejoin="round"/>
<path d="M11.668 4.83325H11.6746" stroke="#383838" stroke-width="2" stroke-linecap="round" stroke-linejoin="round"/>
</svg>
