<svg width="16" height="15" viewBox="0 0 16 15" fill="none" xmlns="http://www.w3.org/2000/svg">
<path fill-rule="evenodd" clip-rule="evenodd" d="M0.666016 1.39208C0.666016 1.0671 0.795113 0.755436 1.02491 0.525641C1.2547 0.295847 1.56637 0.16675 1.89135 0.16675H14.106C14.2671 0.166487 14.4266 0.197992 14.5754 0.259461C14.7243 0.32093 14.8596 0.411156 14.9735 0.524974C15.0875 0.638791 15.1778 0.773965 15.2395 0.922756C15.3011 1.07155 15.3328 1.23103 15.3327 1.39208V13.6067C15.3329 13.7678 15.3013 13.9274 15.2397 14.0762C15.1782 14.2251 15.0879 14.3604 14.974 14.4743C14.8602 14.5882 14.7249 14.6786 14.5761 14.7402C14.4273 14.8018 14.2678 14.8335 14.1067 14.8334H1.89135C1.73038 14.8334 1.57099 14.8017 1.42228 14.7401C1.27357 14.6785 1.13846 14.5881 1.02467 14.4743C0.91088 14.3604 0.820637 14.2253 0.759097 14.0765C0.697558 13.9278 0.665928 13.7684 0.666016 13.6074V1.39208ZM6.47135 5.75875H8.45735V6.75608C8.74402 6.18275 9.47735 5.66675 10.5793 5.66675C12.692 5.66675 13.1927 6.80875 13.1927 8.90408V12.7854H11.0547V9.38142C11.0547 8.18808 10.768 7.51475 10.04 7.51475C9.03002 7.51475 8.61002 8.24075 8.61002 9.38142V12.7854H6.47135V5.75875ZM2.80468 12.6941H4.94335V5.66675H2.80468V12.6941ZM5.24935 3.37475C5.25338 3.55786 5.2208 3.73994 5.15351 3.91029C5.08622 4.08064 4.98558 4.23584 4.8575 4.36677C4.72942 4.4977 4.57648 4.60173 4.40765 4.67275C4.23882 4.74378 4.05751 4.78036 3.87435 4.78036C3.69119 4.78036 3.50988 4.74378 3.34105 4.67275C3.17222 4.60173 3.01927 4.4977 2.89119 4.36677C2.76312 4.23584 2.66248 4.08064 2.59519 3.91029C2.5279 3.73994 2.49532 3.55786 2.49935 3.37475C2.50726 3.01532 2.65561 2.67328 2.91261 2.42187C3.16961 2.17047 3.51483 2.02969 3.87435 2.02969C4.23387 2.02969 4.57909 2.17047 4.83609 2.42187C5.09309 2.67328 5.24143 3.01532 5.24935 3.37475Z" fill="#383838"/>
</svg>
