<svg width="16" height="15" viewBox="0 0 16 15" fill="none" xmlns="http://www.w3.org/2000/svg">
<path d="M15.3327 1.50011C14.6943 1.95043 13.9874 2.29485 13.2393 2.52011C12.8378 2.05845 12.3042 1.73124 11.7107 1.58273C11.1172 1.43422 10.4923 1.47158 9.92074 1.68975C9.34913 1.90792 8.85831 2.29638 8.51467 2.80259C8.17103 3.3088 7.99115 3.90834 7.99935 4.52011V5.18678C6.82777 5.21716 5.66687 4.95732 4.62002 4.43041C3.57318 3.9035 2.67289 3.12587 1.99935 2.16678C1.99935 2.16678 -0.667318 8.16678 5.33268 10.8334C3.9597 11.7654 2.32412 12.2327 0.666016 12.1668C6.66602 15.5001 13.9993 12.1668 13.9993 4.50011C13.9987 4.31441 13.9809 4.12918 13.946 3.94678C14.6264 3.27577 15.1066 2.42859 15.3327 1.50011V1.50011Z" stroke="#383838" stroke-width="2" stroke-linecap="round" stroke-linejoin="round"/>
</svg>
